<?xml version="1.0" encoding="UTF-8"?>
<svg id="Capa_1" data-name="Capa 1" xmlns="http://www.w3.org/2000/svg" viewBox="0 0 163.54 30.36">
  <defs>
    <style>
      .cls-1, .cls-2 {
        fill: #98f6a9;
      }

      .cls-3 {
        fill: #fff;
        font-family: BritannicBold, 'Britannic Bold';
        font-size: 21.26px;
      }

      .cls-2 {
        fill-rule: evenodd;
      }
    </style>
  </defs>
  <path class="cls-2" d="m15.18,0C6.8,0,0,6.8,0,15.18s6.8,15.18,15.18,15.18,15.18-6.8,15.18-15.18S23.56,0,15.18,0Zm0,29.32c-7.81,0-14.14-6.33-14.14-14.14S7.37,1.04,15.18,1.04s14.14,6.33,14.14,14.14-6.33,14.14-14.14,14.14Z"/>
  <g>
    <polygon class="cls-1" points="11.17 19.46 8.77 9.46 5.2 9.46 8.43 22.66 11.59 22.66 15.12 9.46 13.8 9.46 11.17 19.46"/>
    <path class="cls-1" d="m25.6,17.79l-1.5-.43c.08.57.12,1,.12,1.29,0,.91-.23,1.67-.7,2.27-.47.61-1.05.91-1.75.91-1.7,0-2.55-1.78-2.55-5.33,0-4.13.76-6.2,2.28-6.2,1.44,0,2.16.97,2.16,2.92,0,.21,0,.51-.03.9l1.51-.75c0-2.75-1.32-4.12-3.95-4.12-1.69,0-3.05.65-4.11,1.95-1.05,1.3-1.58,2.99-1.58,5.08,0,4.4,1.8,6.61,5.41,6.61,1.44,0,2.58-.38,3.44-1.15s1.28-1.79,1.28-3.08c0-.24-.01-.54-.04-.87Z"/>
  </g>
  <text class="cls-3" transform="translate(38.72 22.43)"><tspan x="0" y="0">Vinil Creativo</tspan></text>
</svg>